<mxfile host="app.diagrams.net" modified="2021-05-05T14:55:17.041Z" agent="5.0 (Macintosh; Intel Mac OS X 10_15_7) AppleWebKit/537.36 (KHTML, like Gecko) Chrome/90.0.4430.93 Safari/537.36" etag="wqiNR5LfAV1M0ctixcI7" version="14.6.10" type="github">
  <diagram id="C5RBs43oDa-KdzZeNtuy" name="Page-1">
    <mxGraphModel dx="1604" dy="1228" grid="1" gridSize="10" guides="1" tooltips="1" connect="1" arrows="1" fold="1" page="1" pageScale="1" pageWidth="827" pageHeight="1169" math="0" shadow="0">
      <root>
        <mxCell id="WIyWlLk6GJQsqaUBKTNV-0" />
        <mxCell id="WIyWlLk6GJQsqaUBKTNV-1" parent="WIyWlLk6GJQsqaUBKTNV-0" />
        <mxCell id="-lYO-OYgZtAXmxxTqnO0-30" value="" style="ellipse;html=1;shape=endState;fillColor=#000000;strokeColor=#ff0000;" parent="WIyWlLk6GJQsqaUBKTNV-1" vertex="1">
          <mxGeometry x="240.94" y="40" width="30" height="30" as="geometry" />
        </mxCell>
        <mxCell id="njKxZj_fPYPsNBG_kstX-0" value="Press start button" style="rounded=1;whiteSpace=wrap;html=1;arcSize=40;fontColor=#000000;fillColor=#ffffc0;strokeColor=#ff0000;" vertex="1" parent="WIyWlLk6GJQsqaUBKTNV-1">
          <mxGeometry x="195.94" y="120" width="120" height="40" as="geometry" />
        </mxCell>
        <mxCell id="njKxZj_fPYPsNBG_kstX-1" value="" style="edgeStyle=orthogonalEdgeStyle;html=1;verticalAlign=bottom;endArrow=open;endSize=8;strokeColor=#ff0000;rounded=0;" edge="1" source="njKxZj_fPYPsNBG_kstX-0" parent="WIyWlLk6GJQsqaUBKTNV-1" target="njKxZj_fPYPsNBG_kstX-38">
          <mxGeometry relative="1" as="geometry">
            <mxPoint x="255.44" y="290" as="targetPoint" />
          </mxGeometry>
        </mxCell>
        <mxCell id="njKxZj_fPYPsNBG_kstX-2" value="" style="endArrow=open;endFill=1;endSize=12;html=1;rounded=0;edgeStyle=orthogonalEdgeStyle;entryX=0.5;entryY=0;entryDx=0;entryDy=0;" edge="1" parent="WIyWlLk6GJQsqaUBKTNV-1" source="-lYO-OYgZtAXmxxTqnO0-30" target="njKxZj_fPYPsNBG_kstX-0">
          <mxGeometry width="160" relative="1" as="geometry">
            <mxPoint x="496.94" y="440" as="sourcePoint" />
            <mxPoint x="626.94" y="490" as="targetPoint" />
          </mxGeometry>
        </mxCell>
        <mxCell id="njKxZj_fPYPsNBG_kstX-3" value="User" style="text;html=1;strokeColor=none;fillColor=none;align=center;verticalAlign=middle;whiteSpace=wrap;rounded=0;" vertex="1" parent="WIyWlLk6GJQsqaUBKTNV-1">
          <mxGeometry x="256.94" y="80" width="40" height="20" as="geometry" />
        </mxCell>
        <mxCell id="njKxZj_fPYPsNBG_kstX-4" value="User started clicking?" style="rhombus;whiteSpace=wrap;html=1;fillColor=#ffffc0;strokeColor=#ff0000;" vertex="1" parent="WIyWlLk6GJQsqaUBKTNV-1">
          <mxGeometry x="205.44" y="450" width="101" height="90" as="geometry" />
        </mxCell>
        <mxCell id="njKxZj_fPYPsNBG_kstX-5" value="no" style="edgeStyle=orthogonalEdgeStyle;html=1;align=left;verticalAlign=bottom;endArrow=open;endSize=8;strokeColor=#ff0000;rounded=0;exitX=1;exitY=0.5;exitDx=0;exitDy=0;" edge="1" source="njKxZj_fPYPsNBG_kstX-4" parent="WIyWlLk6GJQsqaUBKTNV-1" target="njKxZj_fPYPsNBG_kstX-48">
          <mxGeometry x="-1" relative="1" as="geometry">
            <mxPoint x="429.94" y="510" as="targetPoint" />
            <Array as="points" />
          </mxGeometry>
        </mxCell>
        <mxCell id="njKxZj_fPYPsNBG_kstX-6" value="yes" style="edgeStyle=orthogonalEdgeStyle;html=1;align=left;verticalAlign=top;endArrow=open;endSize=8;strokeColor=#ff0000;rounded=0;" edge="1" source="njKxZj_fPYPsNBG_kstX-4" parent="WIyWlLk6GJQsqaUBKTNV-1" target="njKxZj_fPYPsNBG_kstX-34">
          <mxGeometry x="-1" relative="1" as="geometry">
            <mxPoint x="255.44" y="450" as="targetPoint" />
          </mxGeometry>
        </mxCell>
        <mxCell id="njKxZj_fPYPsNBG_kstX-7" value="Show &quot;Game over&quot; window" style="rounded=1;whiteSpace=wrap;html=1;arcSize=40;fontColor=#000000;fillColor=#ffffc0;strokeColor=#ff0000;" vertex="1" parent="WIyWlLk6GJQsqaUBKTNV-1">
          <mxGeometry x="489.94" y="290" width="120" height="40" as="geometry" />
        </mxCell>
        <mxCell id="njKxZj_fPYPsNBG_kstX-8" value="" style="edgeStyle=orthogonalEdgeStyle;html=1;verticalAlign=bottom;endArrow=open;endSize=8;strokeColor=#ff0000;rounded=0;entryX=0.198;entryY=0.757;entryDx=0;entryDy=0;entryPerimeter=0;" edge="1" source="njKxZj_fPYPsNBG_kstX-7" parent="WIyWlLk6GJQsqaUBKTNV-1" target="njKxZj_fPYPsNBG_kstX-61">
          <mxGeometry relative="1" as="geometry">
            <mxPoint x="559.94" y="240" as="targetPoint" />
            <Array as="points">
              <mxPoint x="550" y="270" />
            </Array>
          </mxGeometry>
        </mxCell>
        <mxCell id="njKxZj_fPYPsNBG_kstX-9" value="Close &quot;Game over&quot; window" style="rounded=1;whiteSpace=wrap;html=1;arcSize=40;fontColor=#000000;fillColor=#ffffc0;strokeColor=#ff0000;" vertex="1" parent="WIyWlLk6GJQsqaUBKTNV-1">
          <mxGeometry x="489.94" y="130" width="120" height="40" as="geometry" />
        </mxCell>
        <mxCell id="njKxZj_fPYPsNBG_kstX-10" value="" style="edgeStyle=orthogonalEdgeStyle;html=1;verticalAlign=bottom;endArrow=open;endSize=8;strokeColor=#ff0000;rounded=0;entryX=1;entryY=0.5;entryDx=0;entryDy=0;exitX=0.5;exitY=0;exitDx=0;exitDy=0;" edge="1" source="njKxZj_fPYPsNBG_kstX-9" parent="WIyWlLk6GJQsqaUBKTNV-1" target="-lYO-OYgZtAXmxxTqnO0-30">
          <mxGeometry relative="1" as="geometry">
            <mxPoint x="419.94" y="270" as="targetPoint" />
            <Array as="points">
              <mxPoint x="549.94" y="55" />
            </Array>
          </mxGeometry>
        </mxCell>
        <mxCell id="njKxZj_fPYPsNBG_kstX-14" value="Increase the speed" style="rounded=1;whiteSpace=wrap;html=1;arcSize=40;fontColor=#000000;fillColor=#ffffc0;strokeColor=#ff0000;" vertex="1" parent="WIyWlLk6GJQsqaUBKTNV-1">
          <mxGeometry x="119.94" y="900" width="131" height="60" as="geometry" />
        </mxCell>
        <mxCell id="njKxZj_fPYPsNBG_kstX-19" value="Increase the score" style="rounded=1;whiteSpace=wrap;html=1;arcSize=40;fontColor=#000000;fillColor=#ffffc0;strokeColor=#ff0000;" vertex="1" parent="WIyWlLk6GJQsqaUBKTNV-1">
          <mxGeometry x="260.94" y="900" width="130" height="60" as="geometry" />
        </mxCell>
        <mxCell id="njKxZj_fPYPsNBG_kstX-23" value="" style="shape=line;html=1;strokeWidth=6;strokeColor=#ff0000;" vertex="1" parent="WIyWlLk6GJQsqaUBKTNV-1">
          <mxGeometry x="150.94" y="800" width="200" height="10" as="geometry" />
        </mxCell>
        <mxCell id="njKxZj_fPYPsNBG_kstX-24" value="" style="edgeStyle=orthogonalEdgeStyle;html=1;verticalAlign=bottom;endArrow=open;endSize=8;strokeColor=#ff0000;rounded=0;entryX=0.5;entryY=0;entryDx=0;entryDy=0;exitX=0.876;exitY=0.483;exitDx=0;exitDy=0;exitPerimeter=0;" edge="1" source="njKxZj_fPYPsNBG_kstX-23" parent="WIyWlLk6GJQsqaUBKTNV-1" target="njKxZj_fPYPsNBG_kstX-19">
          <mxGeometry relative="1" as="geometry">
            <mxPoint x="320.94" y="880" as="targetPoint" />
            <Array as="points" />
          </mxGeometry>
        </mxCell>
        <mxCell id="njKxZj_fPYPsNBG_kstX-25" value="" style="edgeStyle=orthogonalEdgeStyle;html=1;verticalAlign=bottom;endArrow=open;endSize=8;strokeColor=#ff0000;rounded=0;entryX=0.5;entryY=0;entryDx=0;entryDy=0;exitX=0.197;exitY=0.414;exitDx=0;exitDy=0;exitPerimeter=0;" edge="1" parent="WIyWlLk6GJQsqaUBKTNV-1" source="njKxZj_fPYPsNBG_kstX-23">
          <mxGeometry relative="1" as="geometry">
            <mxPoint x="185.44" y="900" as="targetPoint" />
            <mxPoint x="185.94" y="830" as="sourcePoint" />
            <Array as="points">
              <mxPoint x="184.94" y="804" />
            </Array>
          </mxGeometry>
        </mxCell>
        <mxCell id="njKxZj_fPYPsNBG_kstX-27" value="" style="shape=line;html=1;strokeWidth=6;strokeColor=#ff0000;" vertex="1" parent="WIyWlLk6GJQsqaUBKTNV-1">
          <mxGeometry x="147.44" y="1030" width="200" height="10" as="geometry" />
        </mxCell>
        <mxCell id="njKxZj_fPYPsNBG_kstX-28" value="" style="edgeStyle=orthogonalEdgeStyle;html=1;verticalAlign=bottom;endArrow=open;endSize=8;strokeColor=#ff0000;rounded=0;" edge="1" source="njKxZj_fPYPsNBG_kstX-27" parent="WIyWlLk6GJQsqaUBKTNV-1" target="njKxZj_fPYPsNBG_kstX-34">
          <mxGeometry relative="1" as="geometry">
            <mxPoint x="209.94" y="695" as="targetPoint" />
            <Array as="points">
              <mxPoint x="248.94" y="1080" />
              <mxPoint x="39.94" y="1080" />
              <mxPoint x="39.94" y="695" />
            </Array>
          </mxGeometry>
        </mxCell>
        <mxCell id="njKxZj_fPYPsNBG_kstX-29" value="" style="edgeStyle=orthogonalEdgeStyle;html=1;verticalAlign=bottom;endArrow=open;endSize=8;strokeColor=#ff0000;rounded=0;exitX=0.5;exitY=1;exitDx=0;exitDy=0;" edge="1" parent="WIyWlLk6GJQsqaUBKTNV-1" source="njKxZj_fPYPsNBG_kstX-19">
          <mxGeometry relative="1" as="geometry">
            <mxPoint x="325.94" y="1030" as="targetPoint" />
            <mxPoint x="325.59999999999997" y="980.07" as="sourcePoint" />
            <Array as="points" />
          </mxGeometry>
        </mxCell>
        <mxCell id="njKxZj_fPYPsNBG_kstX-30" value="" style="edgeStyle=orthogonalEdgeStyle;html=1;verticalAlign=bottom;endArrow=open;endSize=8;strokeColor=#ff0000;rounded=0;exitX=0.5;exitY=1;exitDx=0;exitDy=0;" edge="1" parent="WIyWlLk6GJQsqaUBKTNV-1">
          <mxGeometry relative="1" as="geometry">
            <mxPoint x="186.94" y="1030" as="targetPoint" />
            <mxPoint x="186.94" y="960" as="sourcePoint" />
            <Array as="points">
              <mxPoint x="186.94" y="980" />
              <mxPoint x="186.94" y="980" />
            </Array>
          </mxGeometry>
        </mxCell>
        <mxCell id="njKxZj_fPYPsNBG_kstX-34" value="Cought a picture?" style="rhombus;whiteSpace=wrap;html=1;fillColor=#ffffc0;strokeColor=#ff0000;" vertex="1" parent="WIyWlLk6GJQsqaUBKTNV-1">
          <mxGeometry x="210.94" y="660" width="89" height="70" as="geometry" />
        </mxCell>
        <mxCell id="njKxZj_fPYPsNBG_kstX-35" value="no" style="edgeStyle=orthogonalEdgeStyle;html=1;align=left;verticalAlign=bottom;endArrow=open;endSize=8;strokeColor=#ff0000;rounded=0;entryX=0.699;entryY=0.75;entryDx=0;entryDy=0;entryPerimeter=0;" edge="1" source="njKxZj_fPYPsNBG_kstX-34" parent="WIyWlLk6GJQsqaUBKTNV-1" target="njKxZj_fPYPsNBG_kstX-56">
          <mxGeometry x="-1" relative="1" as="geometry">
            <mxPoint x="390.94" y="470" as="targetPoint" />
            <Array as="points">
              <mxPoint x="640" y="695" />
            </Array>
          </mxGeometry>
        </mxCell>
        <mxCell id="njKxZj_fPYPsNBG_kstX-36" value="yes" style="edgeStyle=orthogonalEdgeStyle;html=1;align=left;verticalAlign=top;endArrow=open;endSize=8;strokeColor=#ff0000;rounded=0;entryX=0.521;entryY=0.443;entryDx=0;entryDy=0;entryPerimeter=0;" edge="1" source="njKxZj_fPYPsNBG_kstX-34" parent="WIyWlLk6GJQsqaUBKTNV-1" target="njKxZj_fPYPsNBG_kstX-23">
          <mxGeometry x="-1" relative="1" as="geometry">
            <mxPoint x="250.94" y="760" as="targetPoint" />
          </mxGeometry>
        </mxCell>
        <mxCell id="njKxZj_fPYPsNBG_kstX-38" value="" style="shape=line;html=1;strokeWidth=6;strokeColor=#ff0000;" vertex="1" parent="WIyWlLk6GJQsqaUBKTNV-1">
          <mxGeometry x="155.94" y="200" width="200" height="10" as="geometry" />
        </mxCell>
        <mxCell id="njKxZj_fPYPsNBG_kstX-39" value="" style="edgeStyle=orthogonalEdgeStyle;html=1;verticalAlign=bottom;endArrow=open;endSize=8;strokeColor=#ff0000;rounded=0;" edge="1" parent="WIyWlLk6GJQsqaUBKTNV-1" target="njKxZj_fPYPsNBG_kstX-44">
          <mxGeometry relative="1" as="geometry">
            <mxPoint x="288.94" y="260" as="targetPoint" />
            <mxPoint x="288.94" y="210" as="sourcePoint" />
          </mxGeometry>
        </mxCell>
        <mxCell id="njKxZj_fPYPsNBG_kstX-41" value="" style="edgeStyle=orthogonalEdgeStyle;html=1;verticalAlign=bottom;endArrow=open;endSize=8;strokeColor=#ff0000;rounded=0;entryX=0.5;entryY=0;entryDx=0;entryDy=0;" edge="1" parent="WIyWlLk6GJQsqaUBKTNV-1" target="njKxZj_fPYPsNBG_kstX-42">
          <mxGeometry relative="1" as="geometry">
            <mxPoint x="210.94" y="260" as="targetPoint" />
            <mxPoint x="210.94" y="210" as="sourcePoint" />
          </mxGeometry>
        </mxCell>
        <mxCell id="njKxZj_fPYPsNBG_kstX-42" value="Flash pictures" style="rounded=1;whiteSpace=wrap;html=1;arcSize=40;fontColor=#000000;fillColor=#ffffc0;strokeColor=#ff0000;" vertex="1" parent="WIyWlLk6GJQsqaUBKTNV-1">
          <mxGeometry x="119.94" y="250" width="120" height="40" as="geometry" />
        </mxCell>
        <mxCell id="njKxZj_fPYPsNBG_kstX-43" value="" style="edgeStyle=orthogonalEdgeStyle;html=1;verticalAlign=bottom;endArrow=open;endSize=8;strokeColor=#ff0000;rounded=0;entryX=0.121;entryY=0.333;entryDx=0;entryDy=0;entryPerimeter=0;" edge="1" source="njKxZj_fPYPsNBG_kstX-42" parent="WIyWlLk6GJQsqaUBKTNV-1" target="njKxZj_fPYPsNBG_kstX-46">
          <mxGeometry relative="1" as="geometry">
            <mxPoint x="179.94" y="330" as="targetPoint" />
          </mxGeometry>
        </mxCell>
        <mxCell id="njKxZj_fPYPsNBG_kstX-44" value="Play the game music" style="rounded=1;whiteSpace=wrap;html=1;arcSize=40;fontColor=#000000;fillColor=#ffffc0;strokeColor=#ff0000;" vertex="1" parent="WIyWlLk6GJQsqaUBKTNV-1">
          <mxGeometry x="250.94" y="250" width="120" height="40" as="geometry" />
        </mxCell>
        <mxCell id="njKxZj_fPYPsNBG_kstX-45" value="" style="edgeStyle=orthogonalEdgeStyle;html=1;verticalAlign=bottom;endArrow=open;endSize=8;strokeColor=#ff0000;rounded=0;entryX=0.773;entryY=0.433;entryDx=0;entryDy=0;entryPerimeter=0;" edge="1" source="njKxZj_fPYPsNBG_kstX-44" parent="WIyWlLk6GJQsqaUBKTNV-1" target="njKxZj_fPYPsNBG_kstX-46">
          <mxGeometry relative="1" as="geometry">
            <mxPoint x="309.94" y="330" as="targetPoint" />
            <Array as="points">
              <mxPoint x="310.94" y="310" />
              <mxPoint x="309.94" y="310" />
            </Array>
          </mxGeometry>
        </mxCell>
        <mxCell id="njKxZj_fPYPsNBG_kstX-46" value="" style="shape=line;html=1;strokeWidth=6;strokeColor=#ff0000;" vertex="1" parent="WIyWlLk6GJQsqaUBKTNV-1">
          <mxGeometry x="155.94" y="330" width="200" height="10" as="geometry" />
        </mxCell>
        <mxCell id="njKxZj_fPYPsNBG_kstX-47" value="" style="edgeStyle=orthogonalEdgeStyle;html=1;verticalAlign=bottom;endArrow=open;endSize=8;strokeColor=#ff0000;rounded=0;" edge="1" source="njKxZj_fPYPsNBG_kstX-46" parent="WIyWlLk6GJQsqaUBKTNV-1" target="njKxZj_fPYPsNBG_kstX-4">
          <mxGeometry relative="1" as="geometry">
            <mxPoint x="255.44" y="410" as="targetPoint" />
          </mxGeometry>
        </mxCell>
        <mxCell id="njKxZj_fPYPsNBG_kstX-48" value="User missed&lt;br&gt;3 flashes?" style="rhombus;whiteSpace=wrap;html=1;fillColor=#ffffc0;strokeColor=#ff0000;" vertex="1" parent="WIyWlLk6GJQsqaUBKTNV-1">
          <mxGeometry x="370.94" y="428" width="139" height="135" as="geometry" />
        </mxCell>
        <mxCell id="njKxZj_fPYPsNBG_kstX-49" value="no" style="edgeStyle=orthogonalEdgeStyle;html=1;align=left;verticalAlign=bottom;endArrow=open;endSize=8;strokeColor=#ff0000;rounded=0;entryX=0.75;entryY=0.5;entryDx=0;entryDy=0;entryPerimeter=0;exitX=0.5;exitY=0;exitDx=0;exitDy=0;" edge="1" source="njKxZj_fPYPsNBG_kstX-48" parent="WIyWlLk6GJQsqaUBKTNV-1" target="njKxZj_fPYPsNBG_kstX-38">
          <mxGeometry x="-1" relative="1" as="geometry">
            <mxPoint x="529.94" y="600" as="targetPoint" />
            <Array as="points">
              <mxPoint x="440.94" y="170" />
              <mxPoint x="305.94" y="170" />
            </Array>
            <mxPoint as="offset" />
          </mxGeometry>
        </mxCell>
        <mxCell id="njKxZj_fPYPsNBG_kstX-50" value="yes" style="edgeStyle=orthogonalEdgeStyle;html=1;align=left;verticalAlign=top;endArrow=open;endSize=8;strokeColor=#ff0000;rounded=0;entryX=0.401;entryY=0.444;entryDx=0;entryDy=0;exitX=1;exitY=0.5;exitDx=0;exitDy=0;entryPerimeter=0;" edge="1" source="njKxZj_fPYPsNBG_kstX-48" parent="WIyWlLk6GJQsqaUBKTNV-1" target="njKxZj_fPYPsNBG_kstX-56">
          <mxGeometry x="-1" relative="1" as="geometry">
            <mxPoint x="480.94" y="270" as="targetPoint" />
            <Array as="points">
              <mxPoint x="580" y="496" />
              <mxPoint x="580" y="374" />
            </Array>
            <mxPoint as="offset" />
          </mxGeometry>
        </mxCell>
        <mxCell id="njKxZj_fPYPsNBG_kstX-54" value="Play the game over music" style="rounded=1;whiteSpace=wrap;html=1;arcSize=40;fontColor=#000000;fillColor=#ffffc0;strokeColor=#ff0000;" vertex="1" parent="WIyWlLk6GJQsqaUBKTNV-1">
          <mxGeometry x="620" y="290" width="120" height="40" as="geometry" />
        </mxCell>
        <mxCell id="njKxZj_fPYPsNBG_kstX-55" value="" style="edgeStyle=orthogonalEdgeStyle;html=1;verticalAlign=bottom;endArrow=open;endSize=8;strokeColor=#ff0000;rounded=0;entryX=0.85;entryY=0.243;entryDx=0;entryDy=0;entryPerimeter=0;" edge="1" source="njKxZj_fPYPsNBG_kstX-54" parent="WIyWlLk6GJQsqaUBKTNV-1" target="njKxZj_fPYPsNBG_kstX-61">
          <mxGeometry relative="1" as="geometry">
            <mxPoint x="680" y="230" as="targetPoint" />
          </mxGeometry>
        </mxCell>
        <mxCell id="njKxZj_fPYPsNBG_kstX-56" value="" style="shape=line;html=1;strokeWidth=6;strokeColor=#ff0000;" vertex="1" parent="WIyWlLk6GJQsqaUBKTNV-1">
          <mxGeometry x="500" y="370" width="200" height="10" as="geometry" />
        </mxCell>
        <mxCell id="njKxZj_fPYPsNBG_kstX-57" value="" style="edgeStyle=orthogonalEdgeStyle;html=1;verticalAlign=bottom;endArrow=open;endSize=8;strokeColor=#ff0000;rounded=0;entryX=0.5;entryY=1;entryDx=0;entryDy=0;exitX=0.25;exitY=0.5;exitDx=0;exitDy=0;exitPerimeter=0;" edge="1" source="njKxZj_fPYPsNBG_kstX-56" parent="WIyWlLk6GJQsqaUBKTNV-1" target="njKxZj_fPYPsNBG_kstX-7">
          <mxGeometry relative="1" as="geometry">
            <mxPoint x="720" y="30" as="targetPoint" />
            <Array as="points">
              <mxPoint x="550" y="360" />
              <mxPoint x="550" y="360" />
            </Array>
          </mxGeometry>
        </mxCell>
        <mxCell id="njKxZj_fPYPsNBG_kstX-60" value="" style="edgeStyle=orthogonalEdgeStyle;html=1;verticalAlign=bottom;endArrow=open;endSize=8;strokeColor=#ff0000;rounded=0;entryX=0.5;entryY=1;entryDx=0;entryDy=0;exitX=0.896;exitY=0.386;exitDx=0;exitDy=0;exitPerimeter=0;" edge="1" parent="WIyWlLk6GJQsqaUBKTNV-1" source="njKxZj_fPYPsNBG_kstX-56" target="njKxZj_fPYPsNBG_kstX-54">
          <mxGeometry relative="1" as="geometry">
            <mxPoint x="559.94" y="340" as="targetPoint" />
            <mxPoint x="560" y="385" as="sourcePoint" />
            <Array as="points">
              <mxPoint x="680" y="374" />
            </Array>
          </mxGeometry>
        </mxCell>
        <mxCell id="njKxZj_fPYPsNBG_kstX-61" value="" style="shape=line;html=1;strokeWidth=6;strokeColor=#ff0000;" vertex="1" parent="WIyWlLk6GJQsqaUBKTNV-1">
          <mxGeometry x="509.94" y="220" width="200" height="10" as="geometry" />
        </mxCell>
        <mxCell id="njKxZj_fPYPsNBG_kstX-62" value="" style="edgeStyle=orthogonalEdgeStyle;html=1;verticalAlign=bottom;endArrow=open;endSize=8;strokeColor=#ff0000;rounded=0;exitX=0.301;exitY=0.357;exitDx=0;exitDy=0;exitPerimeter=0;entryX=0.5;entryY=1;entryDx=0;entryDy=0;" edge="1" source="njKxZj_fPYPsNBG_kstX-61" parent="WIyWlLk6GJQsqaUBKTNV-1" target="njKxZj_fPYPsNBG_kstX-9">
          <mxGeometry relative="1" as="geometry">
            <mxPoint x="610" y="180" as="targetPoint" />
            <Array as="points">
              <mxPoint x="600" y="224" />
              <mxPoint x="600" y="200" />
              <mxPoint x="550" y="200" />
            </Array>
          </mxGeometry>
        </mxCell>
      </root>
    </mxGraphModel>
  </diagram>
</mxfile>
